{
  "accessors": [
    {
      "bufferView": 1,
      "componentType": 5126,
      "count": 651,
      "max": [
        3.6087100505828857,
        2.9024200439453125,
        0.29591000080108643
      ],
      "min": [
        1.757830023765564,
        -2.8255400657653809,
        -0.8636699914932251
      ],
      "type": "VEC3"
    },
    {
      "bufferView": 1,
      "byteOffset": 7812,
      "componentType": 5126,
      "count": 651,
      "max": [
        0.92829328775405884,
        0.92307674884796143,
        1
      ],
      "min": [
        -1,
        -0.92712843418121338,
        -1
      ],
      "type": "VEC3"
    },
    {
      "bufferView": 2,
      "componentType": 5126,
      "count": 651,
      "max": [
        0,
        0,
        0,
        1
      ],
      "min": [
        0,
        0,
        0,
        1
      ],
      "type": "VEC4"
    },
    {
      "bufferView": 0,
      "componentType": 5125,
      "count": 2730,
      "max": [
        650
      ],
      "min": [
        0
      ],
      "type": "SCALAR"
    },
    {
      "bufferView": 1,
      "byteOffset": 15624,
      "componentType": 5126,
      "count": 419,
      "max": [
        3.0730299949645996,
        2.6060600280761719,
        0.22143000364303589
      ],
      "min": [
        1.5822600126266479,
        -2.2990000247955322,
        -0.34797999262809753
      ],
      "type": "VEC3"
    },
    {
      "bufferView": 1,
      "byteOffset": 20652,
      "componentType": 5126,
      "count": 419,
      "max": [
        1,
        1,
        1
      ],
      "min": [
        -1,
        -1,
        -1
      ],
      "type": "VEC3"
    },
    {
      "bufferView": 2,
      "byteOffset": 10416,
      "componentType": 5126,
      "count": 419,
      "max": [
        0,
        0,
        1,
        1
      ],
      "min": [
        0,
        0,
        0,
        1
      ],
      "type": "VEC4"
    },
    {
      "bufferView": 0,
      "byteOffset": 10920,
      "componentType": 5125,
      "count": 1191,
      "max": [
        418
      ],
      "min": [
        0
      ],
      "type": "SCALAR"
    },
    {
      "bufferView": 1,
      "byteOffset": 25680,
      "componentType": 5126,
      "count": 160,
      "max": [
        1,
        -2.2535500526428223,
        1
      ],
      "min": [
        -1,
        -4.2535500526428223,
        -1.1609599590301514
      ],
      "type": "VEC3"
    },
    {
      "bufferView": 1,
      "byteOffset": 27600,
      "componentType": 5126,
      "count": 160,
      "max": [
        0.85883212089538574,
        0.85883212089538574,
        0.68571722507476807
      ],
      "min": [
        -0.85883212089538574,
        -0.85883212089538574,
        -0.99640536308288574
      ],
      "type": "VEC3"
    },
    {
      "bufferView": 0,
      "byteOffset": 15684,
      "componentType": 5125,
      "count": 948,
      "max": [
        159
      ],
      "min": [
        0
      ],
      "type": "SCALAR"
    },
    {
      "bufferView": 1,
      "byteOffset": 29520,
      "componentType": 5126,
      "count": 160,
      "max": [
        1,
        1,
        1.0617599487304688
      ],
      "min": [
        -1,
        -1,
        0.50981998443603516
      ],
      "type": "VEC3"
    },
    {
      "bufferView": 1,
      "byteOffset": 31440,
      "componentType": 5126,
      "count": 160,
      "max": [
        0.90989190340042114,
        0.90989190340042114,
        1
      ],
      "min": [
        -0.90989190340042114,
        -0.90989190340042114,
        -0.68571722507476807
      ],
      "type": "VEC3"
    },
    {
      "bufferView": 2,
      "byteOffset": 17120,
      "componentType": 5126,
      "count": 160,
      "max": [
        1,
        0.30871245265007019,
        0.72788256406784058,
        1
      ],
      "min": [
        0,
        -0.30896022915840149,
        -0.72788232564926147,
        -1
      ],
      "type": "VEC4"
    },
    {
      "bufferView": 0,
      "byteOffset": 19476,
      "componentType": 5125,
      "count": 666,
      "max": [
        159
      ],
      "min": [
        0
      ],
      "type": "SCALAR"
    },
    {
      "bufferView": 1,
      "byteOffset": 33360,
      "componentType": 5126,
      "count": 48,
      "max": [
        0.7378699779510498,
        0.7378699779510498,
        1.0617599487304688
      ],
      "min": [
        -0.7378699779510498,
        -0.7378699779510498,
        1.0617599487304688
      ],
      "type": "VEC3"
    },
    {
      "bufferView": 1,
      "byteOffset": 33936,
      "componentType": 5126,
      "count": 48,
      "max": [
        0,
        0,
        1
      ],
      "min": [
        0,
        0,
        0.99999994039535522
      ],
      "type": "VEC3"
    },
    {
      "bufferView": 2,
      "byteOffset": 19680,
      "componentType": 5126,
      "count": 48,
      "max": [
        0,
        0,
        0,
        1
      ],
      "min": [
        0,
        0,
        0,
        1
      ],
      "type": "VEC4"
    },
    {
      "bufferView": 0,
      "byteOffset": 22140,
      "componentType": 5125,
      "count": 138,
      "max": [
        47
      ],
      "min": [
        0
      ],
      "type": "SCALAR"
    },
    {
      "bufferView": 1,
      "byteOffset": 34512,
      "componentType": 5126,
      "count": 77,
      "max": [
        0.45787999033927917,
        0.51520001888275146,
        1.0617599487304688
      ],
      "min": [
        -0.53073000907897949,
        -0.38945001363754272,
        1.0243599414825439
      ],
      "type": "VEC3"
    },
    {
      "bufferView": 1,
      "byteOffset": 35436,
      "componentType": 5126,
      "count": 77,
      "max": [
        1,
        1,
        0
      ],
      "min": [
        -1,
        -1,
        -1
      ],
      "type": "VEC3"
    },
    {
      "bufferView": 2,
      "byteOffset": 20448,
      "componentType": 5126,
      "count": 77,
      "max": [
        0,
        0,
        0,
        1
      ],
      "min": [
        0,
        0,
        0,
        1
      ],
      "type": "VEC4"
    },
    {
      "bufferView": 0,
      "byteOffset": 22692,
      "componentType": 5125,
      "count": 165,
      "max": [
        76
      ],
      "min": [
        0
      ],
      "type": "SCALAR"
    },
    {
      "bufferView": 1,
      "byteOffset": 36360,
      "componentType": 5126,
      "count": 1046,
      "max": [
        1.6058299541473389,
        1.6645499467849731,
        1.9619400501251221
      ],
      "min": [
        -1.6058299541473389,
        -1.6645499467849731,
        -0.95802998542785645
      ],
      "type": "VEC3"
    },
    {
      "bufferView": 1,
      "byteOffset": 48912,
      "componentType": 5126,
      "count": 1046,
      "max": [
        1,
        1,
        1
      ],
      "min": [
        -1,
        -1,
        -1
      ],
      "type": "VEC3"
    },
    {
      "bufferView": 0,
      "byteOffset": 23352,
      "componentType": 5125,
      "count": 6264,
      "max": [
        1045
      ],
      "min": [
        0
      ],
      "type": "SCALAR"
    }
  ],
  "asset": {
    "extras": {
      "author": "Jonas_Rains (https://sketchfab.com/jonas_rains_models)",
      "license": "CC-BY-4.0 (http://creativecommons.org/licenses/by/4.0/)",
      "source": "https://sketchfab.com/models/300e1a843ffd429395979f2d62788b22",
      "title": "Joy Con"
    },
    "generator": "Sketchfab-3.18.7",
    "version": "2.0"
  },
  "bufferViews": [
    {
      "buffer": 0,
      "byteLength": 48408,
      "byteOffset": 0,
      "name": "floatBufferViews",
      "target": 34963
    },
    {
      "buffer": 0,
      "byteLength": 61464,
      "byteOffset": 48408,
      "byteStride": 12,
      "name": "floatBufferViews",
      "target": 34962
    },
    {
      "buffer": 0,
      "byteLength": 21680,
      "byteOffset": 109872,
      "byteStride": 16,
      "name": "floatBufferViews",
      "target": 34962
    }
  ],
  "buffers": [
    {
      "byteLength": 131552,
      "uri": "scene.bin"
    }
  ],
  "extensionsUsed": [
    "KHR_materials_unlit"
  ],
  "materials": [
    {
      "doubleSided": true,
      "emissiveFactor": [
        0,
        0,
        0
      ],
      "extensions": {
        "KHR_materials_unlit": {}
      },
      "name": "Material.004",
      "pbrMetallicRoughness": {
        "baseColorFactor": [
          0.0071932682999999997,
          0.0071932682999999997,
          0.0071932682999999997,
          1
        ],
        "metallicFactor": 0,
        "roughnessFactor": 1
      }
    },
    {
      "doubleSided": true,
      "emissiveFactor": [
        0,
        0,
        0
      ],
      "extensions": {
        "KHR_materials_unlit": {}
      },
      "name": "Material.002",
      "pbrMetallicRoughness": {
        "baseColorFactor": [
          0.18446773289999999,
          0.18446773289999999,
          0.18446773289999999,
          1
        ],
        "metallicFactor": 0,
        "roughnessFactor": 1
      }
    },
    {
      "doubleSided": true,
      "emissiveFactor": [
        0,
        0,
        0
      ],
      "extensions": {
        "KHR_materials_unlit": {}
      },
      "name": "Material.001",
      "pbrMetallicRoughness": {
        "baseColorFactor": [
          0.0071932682999999997,
          0.0071932682999999997,
          0.0071932682999999997,
          1
        ],
        "metallicFactor": 0,
        "roughnessFactor": 1
      }
    },
    {
      "doubleSided": true,
      "emissiveFactor": [
        0,
        0,
        0
      ],
      "extensions": {
        "KHR_materials_unlit": {}
      },
      "name": "Material.003",
      "pbrMetallicRoughness": {
        "baseColorFactor": [
          0,
          0,
          0,
          1
        ],
        "metallicFactor": 0,
        "roughnessFactor": 1
      }
    },
    {
      "doubleSided": true,
      "emissiveFactor": [
        0,
        0,
        0
      ],
      "extensions": {
        "KHR_materials_unlit": {}
      },
      "name": "Material",
      "pbrMetallicRoughness": {
        "baseColorFactor": [
          0.073235049799999993,
          0.073235049799999993,
          0.073235049799999993,
          1
        ],
        "metallicFactor": 0,
        "roughnessFactor": 1
      }
    }
  ],
  "meshes": [
    {
      "name": "Cube_0",
      "primitives": [
        {
          "attributes": {
            "NORMAL": 1,
            "POSITION": 0,
            "TANGENT": 2
          },
          "indices": 3,
          "material": 4,
          "mode": 4
        }
      ]
    },
    {
      "name": "Cube_1",
      "primitives": [
        {
          "attributes": {
            "NORMAL": 5,
            "POSITION": 4,
            "TANGENT": 6
          },
          "indices": 7,
          "material": 2,
          "mode": 4
        }
      ]
    },
    {
      "name": "Cylinder.001_0",
      "primitives": [
        {
          "attributes": {
            "NORMAL": 9,
            "POSITION": 8
          },
          "indices": 10,
          "material": 2,
          "mode": 4
        }
      ]
    },
    {
      "name": "Cylinder.002_0",
      "primitives": [
        {
          "attributes": {
            "NORMAL": 12,
            "POSITION": 11,
            "TANGENT": 13
          },
          "indices": 14,
          "material": 1,
          "mode": 4
        }
      ]
    },
    {
      "name": "Cylinder.002_1",
      "primitives": [
        {
          "attributes": {
            "NORMAL": 16,
            "POSITION": 15,
            "TANGENT": 17
          },
          "indices": 18,
          "material": 2,
          "mode": 4
        }
      ]
    },
    {
      "name": "Cylinder.002_2",
      "primitives": [
        {
          "attributes": {
            "NORMAL": 20,
            "POSITION": 19,
            "TANGENT": 21
          },
          "indices": 22,
          "material": 3,
          "mode": 4
        }
      ]
    },
    {
      "name": "Sphere_0",
      "primitives": [
        {
          "attributes": {
            "NORMAL": 24,
            "POSITION": 23
          },
          "indices": 25,
          "material": 0,
          "mode": 4
        }
      ]
    }
  ],
  "nodes": [
    {
      "children": [
        1
      ],
      "name": "RootNode (gltf orientation matrix)",
      "rotation": [
        -0.70710678118654746,
        -0,
        -0,
        0.70710678118654757
      ]
    },
    {
      "children": [
        2
      ],
      "name": "RootNode (model correction matrix)"
    },
    {
      "children": [
        3,
        5,
        7,
        10,
        12,
        16
      ],
      "name": "Root"
    },
    {
      "children": [
        4
      ],
      "matrix": [
        0.96121000000000001,
        0.24040000000000003,
        0.13520000000000001,
        0,
        -0.27581000000000006,
        0.83967000000000014,
        0.46786000000000005,
        0,
        -0.0010500000000000002,
        -0.48700000000000004,
        0.87340000000000007,
        0,
        0,
        -3.3188799999999996,
        5.9999600000000006,
        1
      ],
      "name": "Sun"
    },
    {
      "name": "Sun"
    },
    {
      "children": [
        6
      ],
      "matrix": [
        1,
        0,
        0,
        0,
        0,
        -0.88580000000000014,
        -0.46408000000000005,
        0,
        0,
        0.46408000000000005,
        -0.88580000000000014,
        0,
        0,
        3.0323899999999999,
        -5.7880099999999999,
        1
      ],
      "name": "Hemi"
    },
    {
      "name": "Hemi"
    },
    {
      "children": [
        8,
        9
      ],
      "name": "Cube"
    },
    {
      "mesh": 0,
      "name": "Cube_0"
    },
    {
      "mesh": 1,
      "name": "Cube_1"
    },
    {
      "children": [
        11
      ],
      "matrix": [
        0.10474000000000001,
        0,
        0,
        0,
        0,
        0.10474000000000001,
        0,
        0,
        0,
        0,
        0.10474000000000001,
        0,
        1.9775799999999999,
        2.70126,
        -0.44117000000000006,
        1
      ],
      "name": "Cylinder.001"
    },
    {
      "mesh": 2,
      "name": "Cylinder.001_0"
    },
    {
      "children": [
        13,
        14,
        15
      ],
      "matrix": [
        0.23489000000000002,
        0,
        0,
        0,
        0,
        0.23489000000000002,
        0,
        0,
        0,
        0,
        0.23489000000000002,
        0,
        2.3109799999999998,
        -1.2374799999999999,
        0.10237,
        1
      ],
      "name": "Cylinder.002"
    },
    {
      "mesh": 3,
      "name": "Cylinder.002_0"
    },
    {
      "mesh": 4,
      "name": "Cylinder.002_1"
    },
    {
      "mesh": 5,
      "name": "Cylinder.002_2"
    },
    {
      "children": [
        17
      ],
      "matrix": [
        0.25391000000000002,
        0,
        0,
        0,
        0,
        0.25391000000000002,
        0,
        0,
        0,
        0,
        0.25391000000000002,
        0,
        2.6321399999999997,
        -0.14143000000000003,
        0.19665000000000002,
        1
      ],
      "name": "Sphere"
    },
    {
      "mesh": 6,
      "name": "Sphere_0"
    }
  ],
  "scene": 0,
  "scenes": [
    {
      "name": "OSG_Scene",
      "nodes": [
        0
      ]
    }
  ]
}

