{
    "asset" : {
        "generator" : "Khronos glTF Blender I/O v0.9.18",
        "version" : "2.0"
    },
    "scene" : 0,
    "scenes" : [
        {
            "name" : "Scene",
            "nodes" : [
                8,
                9,
                10,
                11
            ]
        }
    ],
    "nodes" : [
        {
            "mesh" : 0,
            "name" : "Cube"
        },
        {
            "mesh" : 1,
            "name" : "Cube.001"
        },
        {
            "mesh" : 2,
            "name" : "Cube.002",
            "scale" : [
                0.2900370955467224,
                0.2900370955467224,
                0.2900370955467224
            ],
            "translation" : [
                2.6225647926330566,
                -0.4095055162906647,
                -1.8516931533813477
            ]
        },
        {
            "mesh" : 3,
            "name" : "Cube.003",
            "translation" : [
                1.6758637428283691,
                -0.16464650630950928,
                1.9694077968597412
            ]
        },
        {
            "mesh" : 4,
            "name" : "Cylinder",
            "scale" : [
                0.4408857524394989,
                0.0950658842921257,
                0.4408857524394989
            ],
            "translation" : [
                2.6321399211883545,
                0.2958907186985016,
                0.14143000543117523
            ]
        },
        {
            "mesh" : 5,
            "name" : "Cylinder.001",
            "scale" : [
                0.1047423705458641,
                0.1047423705458641,
                0.1047423705458641
            ],
            "translation" : [
                1.9775819778442383,
                -0.4411720037460327,
                -2.7012581825256348
            ]
        },
        {
            "mesh" : 6,
            "name" : "Cylinder.002",
            "scale" : [
                0.2348909229040146,
                0.2348909229040146,
                0.2348909229040146
            ],
            "translation" : [
                2.310983419418335,
                0.10237334668636322,
                1.2374820709228516
            ]
        },
        {
            "mesh" : 7,
            "name" : "Sphere",
            "scale" : [
                0.2539145052433014,
                0.2539145052433014,
                0.2539145052433014
            ],
            "translation" : [
                2.6321399211883545,
                0.1966482549905777,
                0.14143000543117523
            ]
        },
        {
            "children" : [
                0,
                1,
                2,
                3,
                4,
                5,
                6,
                7
            ],
            "name" : "Empty",
            "translation" : [
                -2.5080783367156982,
                0.14009708166122437,
                0.10365015268325806
            ]
        },
        {
            "name" : "Hemi",
            "rotation" : [
                -0.9710291624069214,
                0,
                0,
                0.23896105587482452
            ],
            "translation" : [
                0,
                -5.788005828857422,
                -3.0323896408081055
            ]
        },
        {
            "name" : "Sun",
            "rotation" : [
                0.24907146394252777,
                0.13465097546577454,
                0.0355425700545311,
                0.9584201574325562
            ],
            "translation" : [
                0,
                5.999959945678711,
                3.318875312805176
            ]
        },
        {
            "name" : "Camera",
            "rotation" : [
                0.483536034822464,
                0.33687159419059753,
                -0.20870360732078552,
                0.7804827094078064
            ],
            "translation" : [
                8.555451393127441,
                4.335274696350098,
                6.098994731903076
            ]
        }
    ],
    "materials" : [
        {
            "doubleSided" : true,
            "name" : "Material",
            "pbrMetallicRoughness" : {}
        },
        {
            "doubleSided" : true,
            "name" : "Material.001",
            "pbrMetallicRoughness" : {}
        },
        {
            "doubleSided" : true,
            "name" : "Material.002",
            "pbrMetallicRoughness" : {}
        },
        {
            "doubleSided" : true,
            "name" : "Material.003",
            "pbrMetallicRoughness" : {}
        },
        {
            "doubleSided" : true,
            "name" : "Material.004",
            "pbrMetallicRoughness" : {}
        }
    ],
    "meshes" : [
        {
            "name" : "Cube",
            "primitives" : [
                {
                    "attributes" : {
                        "POSITION" : 0,
                        "NORMAL" : 1,
                        "TEXCOORD_0" : 2,
                        "TEXCOORD_1" : 3
                    },
                    "indices" : 4,
                    "material" : 0
                },
                {
                    "attributes" : {
                        "POSITION" : 5,
                        "NORMAL" : 6,
                        "TEXCOORD_0" : 7,
                        "TEXCOORD_1" : 8
                    },
                    "indices" : 9,
                    "material" : 1
                }
            ]
        },
        {
            "name" : "Cube.001",
            "primitives" : [
                {
                    "attributes" : {
                        "POSITION" : 10,
                        "NORMAL" : 11
                    },
                    "indices" : 12
                }
            ]
        },
        {
            "name" : "Cube.002",
            "primitives" : [
                {
                    "attributes" : {
                        "POSITION" : 13,
                        "NORMAL" : 14
                    },
                    "indices" : 15
                }
            ]
        },
        {
            "name" : "Cube.003",
            "primitives" : [
                {
                    "attributes" : {
                        "POSITION" : 16,
                        "NORMAL" : 17,
                        "TEXCOORD_0" : 18,
                        "TEXCOORD_1" : 19
                    },
                    "indices" : 20,
                    "material" : 1
                }
            ]
        },
        {
            "name" : "Cylinder",
            "primitives" : [
                {
                    "attributes" : {
                        "POSITION" : 21,
                        "NORMAL" : 22
                    },
                    "indices" : 23,
                    "material" : 0
                },
                {
                    "attributes" : {
                        "POSITION" : 24,
                        "NORMAL" : 25
                    },
                    "indices" : 26,
                    "material" : 1
                }
            ]
        },
        {
            "name" : "Cylinder.001",
            "primitives" : [
                {
                    "attributes" : {
                        "POSITION" : 27,
                        "NORMAL" : 28
                    },
                    "indices" : 29,
                    "material" : 1
                }
            ]
        },
        {
            "name" : "Cylinder.002",
            "primitives" : [
                {
                    "attributes" : {
                        "POSITION" : 30,
                        "NORMAL" : 31,
                        "TEXCOORD_0" : 32
                    },
                    "indices" : 33,
                    "material" : 2
                },
                {
                    "attributes" : {
                        "POSITION" : 34,
                        "NORMAL" : 35,
                        "TEXCOORD_0" : 36
                    },
                    "indices" : 37,
                    "material" : 1
                },
                {
                    "attributes" : {
                        "POSITION" : 38,
                        "NORMAL" : 39,
                        "TEXCOORD_0" : 40
                    },
                    "indices" : 41,
                    "material" : 3
                }
            ]
        },
        {
            "name" : "Sphere",
            "primitives" : [
                {
                    "attributes" : {
                        "POSITION" : 42,
                        "NORMAL" : 43
                    },
                    "indices" : 44,
                    "material" : 4
                }
            ]
        }
    ],
    "accessors" : [
        {
            "bufferView" : 0,
            "componentType" : 5126,
            "count" : 625,
            "max" : [
                3.60870623588562,
                0.2959141731262207,
                2.8255434036254883
            ],
            "min" : [
                1.7578275203704834,
                -0.8636661171913147,
                -2.902418613433838
            ],
            "type" : "VEC3"
        },
        {
            "bufferView" : 1,
            "componentType" : 5126,
            "count" : 625,
            "type" : "VEC3"
        },
        {
            "bufferView" : 2,
            "componentType" : 5126,
            "count" : 625,
            "type" : "VEC2"
        },
        {
            "bufferView" : 3,
            "componentType" : 5126,
            "count" : 625,
            "type" : "VEC2"
        },
        {
            "bufferView" : 4,
            "componentType" : 5123,
            "count" : 2610,
            "type" : "SCALAR"
        },
        {
            "bufferView" : 5,
            "componentType" : 5126,
            "count" : 488,
            "max" : [
                3.073025703430176,
                0.22143319249153137,
                2.2990031242370605
            ],
            "min" : [
                1.5822570323944092,
                -0.34797561168670654,
                -2.6060595512390137
            ],
            "type" : "VEC3"
        },
        {
            "bufferView" : 6,
            "componentType" : 5126,
            "count" : 488,
            "type" : "VEC3"
        },
        {
            "bufferView" : 7,
            "componentType" : 5126,
            "count" : 488,
            "type" : "VEC2"
        },
        {
            "bufferView" : 8,
            "componentType" : 5126,
            "count" : 488,
            "type" : "VEC2"
        },
        {
            "bufferView" : 9,
            "componentType" : 5123,
            "count" : 1248,
            "type" : "SCALAR"
        },
        {
            "bufferView" : 10,
            "componentType" : 5126,
            "count" : 24,
            "max" : [
                1.7578281164169312,
                0.3293824791908264,
                2.870487928390503
            ],
            "min" : [
                1.3354213237762451,
                -0.49844205379486084,
                -2.98356556892395
            ],
            "type" : "VEC3"
        },
        {
            "bufferView" : 11,
            "componentType" : 5126,
            "count" : 24,
            "type" : "VEC3"
        },
        {
            "bufferView" : 12,
            "componentType" : 5123,
            "count" : 36,
            "type" : "SCALAR"
        },
        {
            "bufferView" : 13,
            "componentType" : 5126,
            "count" : 354,
            "max" : [
                2.638070583343506,
                0.5948431491851807,
                1.7263009548187256
            ],
            "min" : [
                -2.053708076477051,
                -1.565870761871338,
                -2.8292148113250732
            ],
            "type" : "VEC3"
        },
        {
            "bufferView" : 14,
            "componentType" : 5126,
            "count" : 354,
            "type" : "VEC3"
        },
        {
            "bufferView" : 15,
            "componentType" : 5123,
            "count" : 2112,
            "type" : "SCALAR"
        },
        {
            "bufferView" : 16,
            "componentType" : 5126,
            "count" : 190,
            "max" : [
                0.10970437526702881,
                0.3383152484893799,
                0.32959532737731934
            ],
            "min" : [
                -0.09360670298337936,
                -0.18332910537719727,
                -4.575467109680176
            ],
            "type" : "VEC3"
        },
        {
            "bufferView" : 17,
            "componentType" : 5126,
            "count" : 190,
            "type" : "VEC3"
        },
        {
            "bufferView" : 18,
            "componentType" : 5126,
            "count" : 190,
            "type" : "VEC2"
        },
        {
            "bufferView" : 19,
            "componentType" : 5126,
            "count" : 190,
            "type" : "VEC2"
        },
        {
            "bufferView" : 20,
            "componentType" : 5123,
            "count" : 396,
            "type" : "SCALAR"
        },
        {
            "bufferView" : 21,
            "componentType" : 5126,
            "count" : 64,
            "max" : [
                1,
                1.2067031860351562,
                1
            ],
            "min" : [
                -1,
                -0.7832202911376953,
                -1
            ],
            "type" : "VEC3"
        },
        {
            "bufferView" : 22,
            "componentType" : 5126,
            "count" : 64,
            "type" : "VEC3"
        },
        {
            "bufferView" : 23,
            "componentType" : 5123,
            "count" : 192,
            "type" : "SCALAR"
        },
        {
            "bufferView" : 24,
            "componentType" : 5126,
            "count" : 336,
            "max" : [
                1,
                -0.7832202911376953,
                1
            ],
            "min" : [
                -1,
                -0.9481164813041687,
                -0.9986422657966614
            ],
            "type" : "VEC3"
        },
        {
            "bufferView" : 25,
            "componentType" : 5126,
            "count" : 336,
            "type" : "VEC3"
        },
        {
            "bufferView" : 26,
            "componentType" : 5123,
            "count" : 858,
            "type" : "SCALAR"
        },
        {
            "bufferView" : 27,
            "componentType" : 5126,
            "count" : 160,
            "max" : [
                1,
                1,
                4.253545761108398
            ],
            "min" : [
                -1,
                -1.1609591245651245,
                2.2535455226898193
            ],
            "type" : "VEC3"
        },
        {
            "bufferView" : 28,
            "componentType" : 5126,
            "count" : 160,
            "type" : "VEC3"
        },
        {
            "bufferView" : 29,
            "componentType" : 5123,
            "count" : 948,
            "type" : "SCALAR"
        },
        {
            "bufferView" : 30,
            "componentType" : 5126,
            "count" : 160,
            "max" : [
                1,
                1.0617599487304688,
                1
            ],
            "min" : [
                -1,
                0.5098192691802979,
                -1
            ],
            "type" : "VEC3"
        },
        {
            "bufferView" : 31,
            "componentType" : 5126,
            "count" : 160,
            "type" : "VEC3"
        },
        {
            "bufferView" : 32,
            "componentType" : 5126,
            "count" : 160,
            "type" : "VEC2"
        },
        {
            "bufferView" : 33,
            "componentType" : 5123,
            "count" : 666,
            "type" : "SCALAR"
        },
        {
            "bufferView" : 34,
            "componentType" : 5126,
            "count" : 55,
            "max" : [
                0.7378720641136169,
                1.0617599487304688,
                0.7378719449043274
            ],
            "min" : [
                -0.7378720641136169,
                1.0617599487304688,
                -0.7378721237182617
            ],
            "type" : "VEC3"
        },
        {
            "bufferView" : 35,
            "componentType" : 5126,
            "count" : 55,
            "type" : "VEC3"
        },
        {
            "bufferView" : 36,
            "componentType" : 5126,
            "count" : 55,
            "type" : "VEC2"
        },
        {
            "bufferView" : 37,
            "componentType" : 5123,
            "count" : 147,
            "type" : "SCALAR"
        },
        {
            "bufferView" : 38,
            "componentType" : 5126,
            "count" : 77,
            "max" : [
                0.4578815698623657,
                1.0617599487304688,
                0.38945141434669495
            ],
            "min" : [
                -0.5307270288467407,
                1.0243629217147827,
                -0.5151954889297485
            ],
            "type" : "VEC3"
        },
        {
            "bufferView" : 39,
            "componentType" : 5126,
            "count" : 77,
            "type" : "VEC3"
        },
        {
            "bufferView" : 40,
            "componentType" : 5126,
            "count" : 77,
            "type" : "VEC2"
        },
        {
            "bufferView" : 41,
            "componentType" : 5123,
            "count" : 165,
            "type" : "SCALAR"
        },
        {
            "bufferView" : 42,
            "componentType" : 5126,
            "count" : 1046,
            "max" : [
                1.6058292388916016,
                1.9619402885437012,
                1.6645512580871582
            ],
            "min" : [
                -1.6058275699615479,
                -0.9580346345901489,
                -1.6645495891571045
            ],
            "type" : "VEC3"
        },
        {
            "bufferView" : 43,
            "componentType" : 5126,
            "count" : 1046,
            "type" : "VEC3"
        },
        {
            "bufferView" : 44,
            "componentType" : 5123,
            "count" : 6264,
            "type" : "SCALAR"
        }
    ],
    "bufferViews" : [
        {
            "buffer" : 0,
            "byteLength" : 7500,
            "byteOffset" : 0
        },
        {
            "buffer" : 0,
            "byteLength" : 7500,
            "byteOffset" : 7500
        },
        {
            "buffer" : 0,
            "byteLength" : 5000,
            "byteOffset" : 15000
        },
        {
            "buffer" : 0,
            "byteLength" : 5000,
            "byteOffset" : 20000
        },
        {
            "buffer" : 0,
            "byteLength" : 5220,
            "byteOffset" : 25000
        },
        {
            "buffer" : 0,
            "byteLength" : 5856,
            "byteOffset" : 30220
        },
        {
            "buffer" : 0,
            "byteLength" : 5856,
            "byteOffset" : 36076
        },
        {
            "buffer" : 0,
            "byteLength" : 3904,
            "byteOffset" : 41932
        },
        {
            "buffer" : 0,
            "byteLength" : 3904,
            "byteOffset" : 45836
        },
        {
            "buffer" : 0,
            "byteLength" : 2496,
            "byteOffset" : 49740
        },
        {
            "buffer" : 0,
            "byteLength" : 288,
            "byteOffset" : 52236
        },
        {
            "buffer" : 0,
            "byteLength" : 288,
            "byteOffset" : 52524
        },
        {
            "buffer" : 0,
            "byteLength" : 72,
            "byteOffset" : 52812
        },
        {
            "buffer" : 0,
            "byteLength" : 4248,
            "byteOffset" : 52884
        },
        {
            "buffer" : 0,
            "byteLength" : 4248,
            "byteOffset" : 57132
        },
        {
            "buffer" : 0,
            "byteLength" : 4224,
            "byteOffset" : 61380
        },
        {
            "buffer" : 0,
            "byteLength" : 2280,
            "byteOffset" : 65604
        },
        {
            "buffer" : 0,
            "byteLength" : 2280,
            "byteOffset" : 67884
        },
        {
            "buffer" : 0,
            "byteLength" : 1520,
            "byteOffset" : 70164
        },
        {
            "buffer" : 0,
            "byteLength" : 1520,
            "byteOffset" : 71684
        },
        {
            "buffer" : 0,
            "byteLength" : 792,
            "byteOffset" : 73204
        },
        {
            "buffer" : 0,
            "byteLength" : 768,
            "byteOffset" : 73996
        },
        {
            "buffer" : 0,
            "byteLength" : 768,
            "byteOffset" : 74764
        },
        {
            "buffer" : 0,
            "byteLength" : 384,
            "byteOffset" : 75532
        },
        {
            "buffer" : 0,
            "byteLength" : 4032,
            "byteOffset" : 75916
        },
        {
            "buffer" : 0,
            "byteLength" : 4032,
            "byteOffset" : 79948
        },
        {
            "buffer" : 0,
            "byteLength" : 1716,
            "byteOffset" : 83980
        },
        {
            "buffer" : 0,
            "byteLength" : 1920,
            "byteOffset" : 85696
        },
        {
            "buffer" : 0,
            "byteLength" : 1920,
            "byteOffset" : 87616
        },
        {
            "buffer" : 0,
            "byteLength" : 1896,
            "byteOffset" : 89536
        },
        {
            "buffer" : 0,
            "byteLength" : 1920,
            "byteOffset" : 91432
        },
        {
            "buffer" : 0,
            "byteLength" : 1920,
            "byteOffset" : 93352
        },
        {
            "buffer" : 0,
            "byteLength" : 1280,
            "byteOffset" : 95272
        },
        {
            "buffer" : 0,
            "byteLength" : 1332,
            "byteOffset" : 96552
        },
        {
            "buffer" : 0,
            "byteLength" : 660,
            "byteOffset" : 97884
        },
        {
            "buffer" : 0,
            "byteLength" : 660,
            "byteOffset" : 98544
        },
        {
            "buffer" : 0,
            "byteLength" : 440,
            "byteOffset" : 99204
        },
        {
            "buffer" : 0,
            "byteLength" : 294,
            "byteOffset" : 99644
        },
        {
            "buffer" : 0,
            "byteLength" : 924,
            "byteOffset" : 99940
        },
        {
            "buffer" : 0,
            "byteLength" : 924,
            "byteOffset" : 100864
        },
        {
            "buffer" : 0,
            "byteLength" : 616,
            "byteOffset" : 101788
        },
        {
            "buffer" : 0,
            "byteLength" : 330,
            "byteOffset" : 102404
        },
        {
            "buffer" : 0,
            "byteLength" : 12552,
            "byteOffset" : 102736
        },
        {
            "buffer" : 0,
            "byteLength" : 12552,
            "byteOffset" : 115288
        },
        {
            "buffer" : 0,
            "byteLength" : 12528,
            "byteOffset" : 127840
        }
    ],
    "buffers" : [
        {
            "byteLength" : 140368,
            "uri" : "data:application/octet-stream;base64,"
        }
    ]
}
